<mxfile host="app.diagrams.net" modified="2022-05-11T03:32:31.086Z" agent="5.0 (Macintosh)" etag="5ryjw5PfPBiyE8EyJf0n" version="17.4.6" type="github">
  <diagram name="Page-1" id="74e2e168-ea6b-b213-b513-2b3c1d86103e">
    <mxGraphModel dx="1409" dy="1704" grid="1" gridSize="10" guides="1" tooltips="1" connect="1" arrows="1" fold="1" page="1" pageScale="1" pageWidth="1100" pageHeight="850" background="none" math="0" shadow="0">
      <root>
        <mxCell id="0" />
        <mxCell id="1" parent="0" />
        <mxCell id="77e6c97f196da883-1" value="Pool" style="swimlane;html=1;childLayout=stackLayout;startSize=20;rounded=0;shadow=0;labelBackgroundColor=none;strokeWidth=1;fontFamily=Verdana;fontSize=8;align=center;" parent="1" vertex="1">
          <mxGeometry x="120" y="-20" width="1130" height="750" as="geometry" />
        </mxCell>
        <mxCell id="77e6c97f196da883-39" style="edgeStyle=orthogonalEdgeStyle;rounded=1;html=1;labelBackgroundColor=none;startArrow=none;startFill=0;startSize=5;endArrow=classicThin;endFill=1;endSize=5;jettySize=auto;orthogonalLoop=1;strokeWidth=1;fontFamily=Verdana;fontSize=8" parent="77e6c97f196da883-1" target="77e6c97f196da883-23" edge="1">
          <mxGeometry relative="1" as="geometry">
            <mxPoint x="660" y="690" as="sourcePoint" />
          </mxGeometry>
        </mxCell>
        <mxCell id="77e6c97f196da883-40" style="edgeStyle=orthogonalEdgeStyle;rounded=1;html=1;labelBackgroundColor=none;startArrow=none;startFill=0;startSize=5;endArrow=classicThin;endFill=1;endSize=5;jettySize=auto;orthogonalLoop=1;strokeWidth=1;fontFamily=Verdana;fontSize=8" parent="77e6c97f196da883-1" source="77e6c97f196da883-23" target="77e6c97f196da883-24" edge="1">
          <mxGeometry relative="1" as="geometry" />
        </mxCell>
        <mxCell id="107ba76e4e335f99-1" style="edgeStyle=orthogonalEdgeStyle;rounded=1;html=1;labelBackgroundColor=none;startArrow=none;startFill=0;startSize=5;endArrow=classicThin;endFill=1;endSize=5;jettySize=auto;orthogonalLoop=1;strokeWidth=1;fontFamily=Verdana;fontSize=8" parent="77e6c97f196da883-1" target="77e6c97f196da883-18" edge="1">
          <mxGeometry relative="1" as="geometry">
            <mxPoint x="670" y="450" as="sourcePoint" />
          </mxGeometry>
        </mxCell>
        <mxCell id="107ba76e4e335f99-3" style="edgeStyle=orthogonalEdgeStyle;rounded=1;html=1;labelBackgroundColor=none;startArrow=none;startFill=0;startSize=5;endArrow=classicThin;endFill=1;endSize=5;jettySize=auto;orthogonalLoop=1;strokeColor=#000000;strokeWidth=1;fontFamily=Verdana;fontSize=8;fontColor=#000000;" parent="77e6c97f196da883-1" source="77e6c97f196da883-22" edge="1">
          <mxGeometry relative="1" as="geometry">
            <mxPoint x="670" y="610" as="targetPoint" />
          </mxGeometry>
        </mxCell>
        <mxCell id="77e6c97f196da883-2" value="Data Process" style="swimlane;html=1;startSize=20;" parent="77e6c97f196da883-1" vertex="1">
          <mxGeometry y="20" width="220" height="730" as="geometry" />
        </mxCell>
        <mxCell id="SEI4IOqOExJCMmpLVqtO-1" value="&lt;div&gt;Raw Data&lt;/div&gt;" style="shape=cylinder3;whiteSpace=wrap;html=1;boundedLbl=1;backgroundOutline=1;size=15;" vertex="1" parent="77e6c97f196da883-2">
          <mxGeometry x="70" y="70" width="80" height="80" as="geometry" />
        </mxCell>
        <mxCell id="77e6c97f196da883-11" value="One-Hot encoding" style="rounded=1;whiteSpace=wrap;html=1;shadow=0;labelBackgroundColor=none;strokeWidth=1;fontFamily=Verdana;fontSize=12;align=center;" parent="77e6c97f196da883-2" vertex="1">
          <mxGeometry x="60" y="270" width="100" height="60" as="geometry" />
        </mxCell>
        <mxCell id="77e6c97f196da883-26" style="edgeStyle=orthogonalEdgeStyle;rounded=1;html=1;labelBackgroundColor=none;startArrow=none;startFill=0;startSize=5;endArrow=classicThin;endFill=1;endSize=5;jettySize=auto;orthogonalLoop=1;strokeWidth=1;fontFamily=Verdana;fontSize=8;exitX=0.5;exitY=1;exitDx=0;exitDy=0;" parent="77e6c97f196da883-2" source="SEI4IOqOExJCMmpLVqtO-13" target="77e6c97f196da883-11" edge="1">
          <mxGeometry relative="1" as="geometry">
            <mxPoint x="135" y="155" as="sourcePoint" />
          </mxGeometry>
        </mxCell>
        <mxCell id="SEI4IOqOExJCMmpLVqtO-10" value="Data normalization" style="rounded=1;whiteSpace=wrap;html=1;shadow=0;labelBackgroundColor=none;strokeWidth=1;fontFamily=Verdana;fontSize=12;align=center;" vertex="1" parent="77e6c97f196da883-2">
          <mxGeometry x="60" y="360" width="100" height="60" as="geometry" />
        </mxCell>
        <mxCell id="SEI4IOqOExJCMmpLVqtO-12" style="edgeStyle=orthogonalEdgeStyle;rounded=1;html=1;labelBackgroundColor=none;startArrow=none;startFill=0;startSize=5;endArrow=classicThin;endFill=1;endSize=5;jettySize=auto;orthogonalLoop=1;strokeWidth=1;fontFamily=Verdana;fontSize=8;exitX=0.5;exitY=1;exitDx=0;exitDy=0;" edge="1" parent="77e6c97f196da883-2" source="77e6c97f196da883-11" target="SEI4IOqOExJCMmpLVqtO-10">
          <mxGeometry relative="1" as="geometry">
            <mxPoint x="120" y="200" as="sourcePoint" />
            <mxPoint x="120" y="260" as="targetPoint" />
          </mxGeometry>
        </mxCell>
        <mxCell id="SEI4IOqOExJCMmpLVqtO-13" value="Drop missing values" style="rounded=1;whiteSpace=wrap;html=1;shadow=0;labelBackgroundColor=none;strokeWidth=1;fontFamily=Verdana;fontSize=12;align=center;" vertex="1" parent="77e6c97f196da883-2">
          <mxGeometry x="60" y="180" width="100" height="60" as="geometry" />
        </mxCell>
        <mxCell id="SEI4IOqOExJCMmpLVqtO-14" style="edgeStyle=orthogonalEdgeStyle;rounded=1;html=1;labelBackgroundColor=none;startArrow=none;startFill=0;startSize=5;endArrow=classicThin;endFill=1;endSize=5;jettySize=auto;orthogonalLoop=1;strokeWidth=1;fontFamily=Verdana;fontSize=8;entryX=0.5;entryY=0;entryDx=0;entryDy=0;" edge="1" parent="77e6c97f196da883-2" source="SEI4IOqOExJCMmpLVqtO-1" target="SEI4IOqOExJCMmpLVqtO-13">
          <mxGeometry relative="1" as="geometry">
            <mxPoint x="120" y="280" as="sourcePoint" />
            <mxPoint x="120" y="310" as="targetPoint" />
          </mxGeometry>
        </mxCell>
        <mxCell id="SEI4IOqOExJCMmpLVqtO-15" value="&lt;div&gt;Clear Data&lt;/div&gt;" style="shape=cylinder3;whiteSpace=wrap;html=1;boundedLbl=1;backgroundOutline=1;size=15;" vertex="1" parent="77e6c97f196da883-2">
          <mxGeometry x="70" y="450" width="80" height="80" as="geometry" />
        </mxCell>
        <mxCell id="SEI4IOqOExJCMmpLVqtO-16" style="edgeStyle=elbowEdgeStyle;rounded=1;html=1;labelBackgroundColor=none;startArrow=none;startFill=0;startSize=5;endArrow=classicThin;endFill=1;endSize=5;jettySize=auto;orthogonalLoop=1;strokeWidth=1;fontFamily=Verdana;fontSize=8;exitX=0.5;exitY=1;exitDx=0;exitDy=0;entryX=0.5;entryY=0;entryDx=0;entryDy=0;entryPerimeter=0;" edge="1" parent="77e6c97f196da883-2" source="SEI4IOqOExJCMmpLVqtO-10" target="SEI4IOqOExJCMmpLVqtO-15">
          <mxGeometry relative="1" as="geometry">
            <mxPoint x="120" y="340" as="sourcePoint" />
            <mxPoint x="120" y="370" as="targetPoint" />
          </mxGeometry>
        </mxCell>
        <mxCell id="SEI4IOqOExJCMmpLVqtO-19" value="Imbalance data?" style="rhombus;whiteSpace=wrap;html=1;rounded=0;shadow=0;labelBackgroundColor=none;strokeWidth=1;fontFamily=Verdana;fontSize=12;align=center;" vertex="1" parent="77e6c97f196da883-2">
          <mxGeometry x="62.5" y="560" width="95" height="70" as="geometry" />
        </mxCell>
        <mxCell id="SEI4IOqOExJCMmpLVqtO-20" style="edgeStyle=orthogonalEdgeStyle;rounded=1;html=1;labelBackgroundColor=none;startArrow=none;startFill=0;startSize=5;endArrow=classicThin;endFill=1;endSize=5;jettySize=auto;orthogonalLoop=1;strokeWidth=1;fontFamily=Verdana;fontSize=8;exitX=0.5;exitY=1;exitDx=0;exitDy=0;entryX=0.5;entryY=0;entryDx=0;entryDy=0;exitPerimeter=0;" edge="1" parent="77e6c97f196da883-2" source="SEI4IOqOExJCMmpLVqtO-15" target="SEI4IOqOExJCMmpLVqtO-19">
          <mxGeometry relative="1" as="geometry">
            <mxPoint x="120" y="430" as="sourcePoint" />
            <mxPoint x="120" y="460" as="targetPoint" />
          </mxGeometry>
        </mxCell>
        <mxCell id="77e6c97f196da883-3" value="Balance the data" style="swimlane;html=1;startSize=20;" parent="77e6c97f196da883-1" vertex="1">
          <mxGeometry x="220" y="20" width="160" height="730" as="geometry" />
        </mxCell>
        <mxCell id="SEI4IOqOExJCMmpLVqtO-70" value="&lt;div&gt;Balance Data&lt;/div&gt;" style="shape=cylinder3;whiteSpace=wrap;html=1;boundedLbl=1;backgroundOutline=1;size=15;" vertex="1" parent="77e6c97f196da883-3">
          <mxGeometry x="40" y="425" width="80" height="80" as="geometry" />
        </mxCell>
        <mxCell id="SEI4IOqOExJCMmpLVqtO-74" style="edgeStyle=orthogonalEdgeStyle;rounded=1;html=1;labelBackgroundColor=none;startArrow=none;startFill=0;startSize=5;endArrow=classicThin;endFill=1;endSize=5;jettySize=auto;orthogonalLoop=1;strokeWidth=1;fontFamily=Verdana;fontSize=8;exitX=0.5;exitY=1;exitDx=0;exitDy=0;entryX=0.5;entryY=0;entryDx=0;entryDy=0;entryPerimeter=0;" edge="1" parent="77e6c97f196da883-3" source="SEI4IOqOExJCMmpLVqtO-27" target="SEI4IOqOExJCMmpLVqtO-70">
          <mxGeometry relative="1" as="geometry">
            <mxPoint x="-100" y="250" as="sourcePoint" />
            <mxPoint x="-100" y="280" as="targetPoint" />
          </mxGeometry>
        </mxCell>
        <mxCell id="SEI4IOqOExJCMmpLVqtO-68" value="" style="group" vertex="1" connectable="0" parent="77e6c97f196da883-3">
          <mxGeometry x="25" y="220" width="110" height="86.25" as="geometry" />
        </mxCell>
        <mxCell id="SEI4IOqOExJCMmpLVqtO-27" value="" style="rounded=1;whiteSpace=wrap;html=1;shadow=0;labelBackgroundColor=none;strokeWidth=1;fontFamily=Verdana;fontSize=12;align=center;" vertex="1" parent="SEI4IOqOExJCMmpLVqtO-68">
          <mxGeometry x="5" width="100" height="86.25" as="geometry" />
        </mxCell>
        <mxCell id="SEI4IOqOExJCMmpLVqtO-31" value="Balance the data" style="text;html=1;align=center;verticalAlign=middle;resizable=0;points=[];autosize=1;strokeColor=none;fillColor=none;fontSize=12;" vertex="1" parent="SEI4IOqOExJCMmpLVqtO-68">
          <mxGeometry y="5.597662337662337" width="110" height="20" as="geometry" />
        </mxCell>
        <mxCell id="SEI4IOqOExJCMmpLVqtO-67" value="&lt;div align=&quot;left&quot;&gt;1. RUS&lt;br&gt;&lt;/div&gt;&lt;div align=&quot;left&quot;&gt;2. ROS&lt;/div&gt;&lt;div align=&quot;left&quot;&gt;3. SOMTE&lt;br&gt;&lt;/div&gt;" style="text;html=1;align=left;verticalAlign=middle;resizable=0;points=[];autosize=1;strokeColor=none;fillColor=none;fontSize=12;" vertex="1" parent="SEI4IOqOExJCMmpLVqtO-68">
          <mxGeometry x="15" y="23.522727272727273" width="70" height="50" as="geometry" />
        </mxCell>
        <mxCell id="77e6c97f196da883-4" value="&lt;div&gt;Data split&lt;/div&gt;" style="swimlane;html=1;startSize=20;" parent="77e6c97f196da883-1" vertex="1">
          <mxGeometry x="380" y="20" width="270" height="730" as="geometry" />
        </mxCell>
        <mxCell id="SEI4IOqOExJCMmpLVqtO-17" value="5 fold spliting" style="rounded=1;whiteSpace=wrap;html=1;shadow=0;labelBackgroundColor=none;strokeWidth=1;fontFamily=Verdana;fontSize=12;align=center;" vertex="1" parent="77e6c97f196da883-4">
          <mxGeometry x="80" y="640" width="100" height="60" as="geometry" />
        </mxCell>
        <mxCell id="SEI4IOqOExJCMmpLVqtO-212" value="" style="group" vertex="1" connectable="0" parent="77e6c97f196da883-4">
          <mxGeometry x="20" y="70" width="223.12" height="540" as="geometry" />
        </mxCell>
        <mxCell id="SEI4IOqOExJCMmpLVqtO-200" value="" style="rounded=0;whiteSpace=wrap;html=1;fontSize=12;strokeWidth=1;fillColor=#f5f5f5;fontColor=#333333;strokeColor=#666666;" vertex="1" parent="SEI4IOqOExJCMmpLVqtO-212">
          <mxGeometry width="223.12" height="540" as="geometry" />
        </mxCell>
        <mxCell id="SEI4IOqOExJCMmpLVqtO-202" value="Train data" style="rounded=0;whiteSpace=wrap;html=1;fontSize=12;strokeWidth=1;fillColor=#d5e8d4;strokeColor=#82b366;" vertex="1" parent="SEI4IOqOExJCMmpLVqtO-212">
          <mxGeometry x="22.189999999999998" y="10" width="63.12" height="20" as="geometry" />
        </mxCell>
        <mxCell id="SEI4IOqOExJCMmpLVqtO-203" value="Test data" style="rounded=0;whiteSpace=wrap;html=1;fontSize=12;strokeWidth=1;fillColor=#e1d5e7;strokeColor=#9673a6;" vertex="1" parent="SEI4IOqOExJCMmpLVqtO-212">
          <mxGeometry x="22.189999999999998" y="40" width="63.12" height="20" as="geometry" />
        </mxCell>
        <mxCell id="SEI4IOqOExJCMmpLVqtO-206" value="" style="group" vertex="1" connectable="0" parent="SEI4IOqOExJCMmpLVqtO-212">
          <mxGeometry x="95.31" y="70" width="105" height="450" as="geometry" />
        </mxCell>
        <mxCell id="SEI4IOqOExJCMmpLVqtO-157" value="" style="shape=cylinder3;whiteSpace=wrap;html=1;boundedLbl=1;backgroundOutline=1;size=15;fillColor=#d5e8d4;strokeColor=#82b366;" vertex="1" parent="SEI4IOqOExJCMmpLVqtO-206">
          <mxGeometry y="360" width="70" height="60" as="geometry" />
        </mxCell>
        <mxCell id="SEI4IOqOExJCMmpLVqtO-158" value="" style="shape=cylinder3;whiteSpace=wrap;html=1;boundedLbl=1;backgroundOutline=1;size=15;fillColor=#d5e8d4;strokeColor=#82b366;" vertex="1" parent="SEI4IOqOExJCMmpLVqtO-206">
          <mxGeometry x="8.75" y="367.5" width="70" height="60" as="geometry" />
        </mxCell>
        <mxCell id="SEI4IOqOExJCMmpLVqtO-159" value="" style="shape=cylinder3;whiteSpace=wrap;html=1;boundedLbl=1;backgroundOutline=1;size=15;fillColor=#d5e8d4;strokeColor=#82b366;" vertex="1" parent="SEI4IOqOExJCMmpLVqtO-206">
          <mxGeometry x="17.5" y="375" width="70" height="60" as="geometry" />
        </mxCell>
        <mxCell id="SEI4IOqOExJCMmpLVqtO-160" value="" style="shape=cylinder3;whiteSpace=wrap;html=1;boundedLbl=1;backgroundOutline=1;size=15;fillColor=#d5e8d4;strokeColor=#82b366;" vertex="1" parent="SEI4IOqOExJCMmpLVqtO-206">
          <mxGeometry x="26.25" y="382.5" width="70" height="60" as="geometry" />
        </mxCell>
        <mxCell id="SEI4IOqOExJCMmpLVqtO-161" value="" style="shape=cylinder3;whiteSpace=wrap;html=1;boundedLbl=1;backgroundOutline=1;size=15;fillColor=#e1d5e7;strokeColor=#9673a6;" vertex="1" parent="SEI4IOqOExJCMmpLVqtO-206">
          <mxGeometry x="35" y="390" width="70" height="60" as="geometry" />
        </mxCell>
        <mxCell id="SEI4IOqOExJCMmpLVqtO-162" value="" style="shape=cylinder3;whiteSpace=wrap;html=1;boundedLbl=1;backgroundOutline=1;size=15;fillColor=#d5e8d4;strokeColor=#82b366;" vertex="1" parent="SEI4IOqOExJCMmpLVqtO-206">
          <mxGeometry y="270" width="70" height="60" as="geometry" />
        </mxCell>
        <mxCell id="SEI4IOqOExJCMmpLVqtO-163" value="" style="shape=cylinder3;whiteSpace=wrap;html=1;boundedLbl=1;backgroundOutline=1;size=15;fillColor=#d5e8d4;strokeColor=#82b366;" vertex="1" parent="SEI4IOqOExJCMmpLVqtO-206">
          <mxGeometry x="8.75" y="277.5" width="70" height="60" as="geometry" />
        </mxCell>
        <mxCell id="SEI4IOqOExJCMmpLVqtO-164" value="" style="shape=cylinder3;whiteSpace=wrap;html=1;boundedLbl=1;backgroundOutline=1;size=15;fillColor=#d5e8d4;strokeColor=#82b366;" vertex="1" parent="SEI4IOqOExJCMmpLVqtO-206">
          <mxGeometry x="17.5" y="285" width="70" height="60" as="geometry" />
        </mxCell>
        <mxCell id="SEI4IOqOExJCMmpLVqtO-165" value="" style="shape=cylinder3;whiteSpace=wrap;html=1;boundedLbl=1;backgroundOutline=1;size=15;fillColor=#e1d5e7;strokeColor=#9673a6;" vertex="1" parent="SEI4IOqOExJCMmpLVqtO-206">
          <mxGeometry x="26.25" y="292.5" width="70" height="60" as="geometry" />
        </mxCell>
        <mxCell id="SEI4IOqOExJCMmpLVqtO-166" value="" style="shape=cylinder3;whiteSpace=wrap;html=1;boundedLbl=1;backgroundOutline=1;size=15;fillColor=#d5e8d4;strokeColor=#82b366;" vertex="1" parent="SEI4IOqOExJCMmpLVqtO-206">
          <mxGeometry x="35" y="300" width="70" height="60" as="geometry" />
        </mxCell>
        <mxCell id="SEI4IOqOExJCMmpLVqtO-167" value="" style="shape=cylinder3;whiteSpace=wrap;html=1;boundedLbl=1;backgroundOutline=1;size=15;fillColor=#d5e8d4;strokeColor=#82b366;" vertex="1" parent="SEI4IOqOExJCMmpLVqtO-206">
          <mxGeometry y="180" width="70" height="60" as="geometry" />
        </mxCell>
        <mxCell id="SEI4IOqOExJCMmpLVqtO-168" value="" style="shape=cylinder3;whiteSpace=wrap;html=1;boundedLbl=1;backgroundOutline=1;size=15;fillColor=#d5e8d4;strokeColor=#82b366;" vertex="1" parent="SEI4IOqOExJCMmpLVqtO-206">
          <mxGeometry x="8.75" y="187.5" width="70" height="60" as="geometry" />
        </mxCell>
        <mxCell id="SEI4IOqOExJCMmpLVqtO-169" value="" style="shape=cylinder3;whiteSpace=wrap;html=1;boundedLbl=1;backgroundOutline=1;size=15;fillColor=#e1d5e7;strokeColor=#9673a6;" vertex="1" parent="SEI4IOqOExJCMmpLVqtO-206">
          <mxGeometry x="17.5" y="195" width="70" height="60" as="geometry" />
        </mxCell>
        <mxCell id="SEI4IOqOExJCMmpLVqtO-170" value="" style="shape=cylinder3;whiteSpace=wrap;html=1;boundedLbl=1;backgroundOutline=1;size=15;fillColor=#d5e8d4;strokeColor=#82b366;" vertex="1" parent="SEI4IOqOExJCMmpLVqtO-206">
          <mxGeometry x="26.25" y="202.5" width="70" height="60" as="geometry" />
        </mxCell>
        <mxCell id="SEI4IOqOExJCMmpLVqtO-171" value="" style="shape=cylinder3;whiteSpace=wrap;html=1;boundedLbl=1;backgroundOutline=1;size=15;fillColor=#d5e8d4;strokeColor=#82b366;" vertex="1" parent="SEI4IOqOExJCMmpLVqtO-206">
          <mxGeometry x="35" y="210" width="70" height="60" as="geometry" />
        </mxCell>
        <mxCell id="SEI4IOqOExJCMmpLVqtO-182" value="" style="shape=cylinder3;whiteSpace=wrap;html=1;boundedLbl=1;backgroundOutline=1;size=15;fillColor=#d5e8d4;strokeColor=#82b366;" vertex="1" parent="SEI4IOqOExJCMmpLVqtO-206">
          <mxGeometry y="90" width="70" height="60" as="geometry" />
        </mxCell>
        <mxCell id="SEI4IOqOExJCMmpLVqtO-183" value="" style="shape=cylinder3;whiteSpace=wrap;html=1;boundedLbl=1;backgroundOutline=1;size=15;fillColor=#e1d5e7;strokeColor=#9673a6;" vertex="1" parent="SEI4IOqOExJCMmpLVqtO-206">
          <mxGeometry x="8.75" y="97.5" width="70" height="60" as="geometry" />
        </mxCell>
        <mxCell id="SEI4IOqOExJCMmpLVqtO-184" value="" style="shape=cylinder3;whiteSpace=wrap;html=1;boundedLbl=1;backgroundOutline=1;size=15;fillColor=#d5e8d4;strokeColor=#82b366;" vertex="1" parent="SEI4IOqOExJCMmpLVqtO-206">
          <mxGeometry x="17.5" y="105" width="70" height="60" as="geometry" />
        </mxCell>
        <mxCell id="SEI4IOqOExJCMmpLVqtO-185" value="" style="shape=cylinder3;whiteSpace=wrap;html=1;boundedLbl=1;backgroundOutline=1;size=15;fillColor=#d5e8d4;strokeColor=#82b366;" vertex="1" parent="SEI4IOqOExJCMmpLVqtO-206">
          <mxGeometry x="26.25" y="112.5" width="70" height="60" as="geometry" />
        </mxCell>
        <mxCell id="SEI4IOqOExJCMmpLVqtO-186" value="" style="shape=cylinder3;whiteSpace=wrap;html=1;boundedLbl=1;backgroundOutline=1;size=15;fillColor=#d5e8d4;strokeColor=#82b366;" vertex="1" parent="SEI4IOqOExJCMmpLVqtO-206">
          <mxGeometry x="35" y="120" width="70" height="60" as="geometry" />
        </mxCell>
        <mxCell id="SEI4IOqOExJCMmpLVqtO-188" value="" style="shape=cylinder3;whiteSpace=wrap;html=1;boundedLbl=1;backgroundOutline=1;size=15;fillColor=#e1d5e7;strokeColor=#9673a6;" vertex="1" parent="SEI4IOqOExJCMmpLVqtO-206">
          <mxGeometry width="70" height="60" as="geometry" />
        </mxCell>
        <mxCell id="SEI4IOqOExJCMmpLVqtO-189" value="" style="shape=cylinder3;whiteSpace=wrap;html=1;boundedLbl=1;backgroundOutline=1;size=15;fillColor=#d5e8d4;strokeColor=#82b366;" vertex="1" parent="SEI4IOqOExJCMmpLVqtO-206">
          <mxGeometry x="8.75" y="7.5" width="70" height="60" as="geometry" />
        </mxCell>
        <mxCell id="SEI4IOqOExJCMmpLVqtO-190" value="" style="shape=cylinder3;whiteSpace=wrap;html=1;boundedLbl=1;backgroundOutline=1;size=15;fillColor=#d5e8d4;strokeColor=#82b366;" vertex="1" parent="SEI4IOqOExJCMmpLVqtO-206">
          <mxGeometry x="17.5" y="15" width="70" height="60" as="geometry" />
        </mxCell>
        <mxCell id="SEI4IOqOExJCMmpLVqtO-191" value="" style="shape=cylinder3;whiteSpace=wrap;html=1;boundedLbl=1;backgroundOutline=1;size=15;fillColor=#d5e8d4;strokeColor=#82b366;" vertex="1" parent="SEI4IOqOExJCMmpLVqtO-206">
          <mxGeometry x="26.25" y="22.5" width="70" height="60" as="geometry" />
        </mxCell>
        <mxCell id="SEI4IOqOExJCMmpLVqtO-192" value="" style="shape=cylinder3;whiteSpace=wrap;html=1;boundedLbl=1;backgroundOutline=1;size=15;fillColor=#d5e8d4;strokeColor=#82b366;" vertex="1" parent="SEI4IOqOExJCMmpLVqtO-206">
          <mxGeometry x="35" y="30" width="70" height="60" as="geometry" />
        </mxCell>
        <mxCell id="SEI4IOqOExJCMmpLVqtO-207" value="Round 1" style="text;html=1;align=center;verticalAlign=middle;resizable=0;points=[];autosize=1;strokeColor=none;fillColor=none;fontSize=12;" vertex="1" parent="SEI4IOqOExJCMmpLVqtO-212">
          <mxGeometry x="22.189999999999998" y="90" width="60" height="20" as="geometry" />
        </mxCell>
        <mxCell id="SEI4IOqOExJCMmpLVqtO-208" value="Round 2" style="text;html=1;align=center;verticalAlign=middle;resizable=0;points=[];autosize=1;strokeColor=none;fillColor=none;fontSize=12;" vertex="1" parent="SEI4IOqOExJCMmpLVqtO-212">
          <mxGeometry x="23.749999999999943" y="180" width="60" height="20" as="geometry" />
        </mxCell>
        <mxCell id="SEI4IOqOExJCMmpLVqtO-209" value="Round 3" style="text;html=1;align=center;verticalAlign=middle;resizable=0;points=[];autosize=1;strokeColor=none;fillColor=none;fontSize=12;" vertex="1" parent="SEI4IOqOExJCMmpLVqtO-212">
          <mxGeometry x="23.749999999999943" y="270" width="60" height="20" as="geometry" />
        </mxCell>
        <mxCell id="SEI4IOqOExJCMmpLVqtO-210" value="Round 4" style="text;html=1;align=center;verticalAlign=middle;resizable=0;points=[];autosize=1;strokeColor=none;fillColor=none;fontSize=12;" vertex="1" parent="SEI4IOqOExJCMmpLVqtO-212">
          <mxGeometry x="23.749999999999943" y="365" width="60" height="20" as="geometry" />
        </mxCell>
        <mxCell id="SEI4IOqOExJCMmpLVqtO-211" value="Round 5" style="text;html=1;align=center;verticalAlign=middle;resizable=0;points=[];autosize=1;strokeColor=none;fillColor=none;fontSize=12;" vertex="1" parent="SEI4IOqOExJCMmpLVqtO-212">
          <mxGeometry x="23.750000000000057" y="450" width="60" height="20" as="geometry" />
        </mxCell>
        <mxCell id="SEI4IOqOExJCMmpLVqtO-213" style="edgeStyle=orthogonalEdgeStyle;rounded=1;html=1;labelBackgroundColor=none;startArrow=none;startFill=0;startSize=5;endArrow=classicThin;endFill=1;endSize=5;jettySize=auto;orthogonalLoop=1;strokeWidth=1;fontFamily=Verdana;fontSize=8;entryX=0.5;entryY=1;entryDx=0;entryDy=0;exitX=0.5;exitY=0;exitDx=0;exitDy=0;" edge="1" parent="77e6c97f196da883-4" source="SEI4IOqOExJCMmpLVqtO-17" target="SEI4IOqOExJCMmpLVqtO-200">
          <mxGeometry relative="1" as="geometry">
            <mxPoint x="-70" y="515" as="sourcePoint" />
            <mxPoint x="95" y="665" as="targetPoint" />
          </mxGeometry>
        </mxCell>
        <mxCell id="77e6c97f196da883-5" value="Lane 4" style="swimlane;html=1;startSize=20;" parent="77e6c97f196da883-1" vertex="1">
          <mxGeometry x="650" y="20" width="160" height="730" as="geometry" />
        </mxCell>
        <mxCell id="77e6c97f196da883-6" value="Lane 5" style="swimlane;html=1;startSize=20;" parent="77e6c97f196da883-1" vertex="1">
          <mxGeometry x="810" y="20" width="160" height="730" as="geometry" />
        </mxCell>
        <mxCell id="77e6c97f196da883-18" value="" style="rounded=1;whiteSpace=wrap;html=1;shadow=0;labelBackgroundColor=none;strokeWidth=1;fontFamily=Verdana;fontSize=8;align=center;" parent="77e6c97f196da883-6" vertex="1">
          <mxGeometry x="30" y="400" width="100" height="60" as="geometry" />
        </mxCell>
        <mxCell id="77e6c97f196da883-21" value="" style="rounded=1;whiteSpace=wrap;html=1;shadow=0;labelBackgroundColor=none;strokeWidth=1;fontFamily=Verdana;fontSize=8;align=center;" parent="77e6c97f196da883-6" vertex="1">
          <mxGeometry x="30" y="480" width="100" height="60" as="geometry" />
        </mxCell>
        <mxCell id="77e6c97f196da883-22" value="" style="rounded=1;whiteSpace=wrap;html=1;shadow=0;labelBackgroundColor=none;strokeWidth=1;fontFamily=Verdana;fontSize=8;align=center;" parent="77e6c97f196da883-6" vertex="1">
          <mxGeometry x="30" y="560" width="100" height="60" as="geometry" />
        </mxCell>
        <mxCell id="77e6c97f196da883-23" value="" style="rounded=1;whiteSpace=wrap;html=1;shadow=0;labelBackgroundColor=none;strokeWidth=1;fontFamily=Verdana;fontSize=8;align=center;" parent="77e6c97f196da883-6" vertex="1">
          <mxGeometry x="30" y="640" width="100" height="60" as="geometry" />
        </mxCell>
        <mxCell id="77e6c97f196da883-37" style="edgeStyle=orthogonalEdgeStyle;rounded=1;html=1;labelBackgroundColor=none;startArrow=none;startFill=0;startSize=5;endArrow=classicThin;endFill=1;endSize=5;jettySize=auto;orthogonalLoop=1;strokeWidth=1;fontFamily=Verdana;fontSize=8" parent="77e6c97f196da883-6" source="77e6c97f196da883-18" target="77e6c97f196da883-21" edge="1">
          <mxGeometry relative="1" as="geometry" />
        </mxCell>
        <mxCell id="77e6c97f196da883-38" style="edgeStyle=orthogonalEdgeStyle;rounded=1;html=1;labelBackgroundColor=none;startArrow=none;startFill=0;startSize=5;endArrow=classicThin;endFill=1;endSize=5;jettySize=auto;orthogonalLoop=1;strokeWidth=1;fontFamily=Verdana;fontSize=8" parent="77e6c97f196da883-6" source="77e6c97f196da883-21" target="77e6c97f196da883-22" edge="1">
          <mxGeometry relative="1" as="geometry" />
        </mxCell>
        <mxCell id="77e6c97f196da883-7" value="Lane 6" style="swimlane;html=1;startSize=20;" parent="77e6c97f196da883-1" vertex="1">
          <mxGeometry x="970" y="20" width="160" height="730" as="geometry" />
        </mxCell>
        <mxCell id="77e6c97f196da883-24" value="" style="rounded=1;whiteSpace=wrap;html=1;shadow=0;labelBackgroundColor=none;strokeWidth=1;fontFamily=Verdana;fontSize=8;align=center;" parent="77e6c97f196da883-7" vertex="1">
          <mxGeometry x="30" y="640" width="100" height="60" as="geometry" />
        </mxCell>
        <mxCell id="SEI4IOqOExJCMmpLVqtO-25" style="edgeStyle=orthogonalEdgeStyle;rounded=1;html=1;labelBackgroundColor=none;startArrow=none;startFill=0;startSize=5;endArrow=classicThin;endFill=1;endSize=5;jettySize=auto;orthogonalLoop=1;strokeWidth=1;fontFamily=Verdana;fontSize=8;exitX=0.5;exitY=1;exitDx=0;exitDy=0;entryX=0;entryY=0.5;entryDx=0;entryDy=0;" edge="1" parent="77e6c97f196da883-1" source="SEI4IOqOExJCMmpLVqtO-19" target="SEI4IOqOExJCMmpLVqtO-17">
          <mxGeometry relative="1" as="geometry">
            <mxPoint x="120" y="450" as="sourcePoint" />
            <mxPoint x="120" y="480" as="targetPoint" />
          </mxGeometry>
        </mxCell>
        <mxCell id="SEI4IOqOExJCMmpLVqtO-26" value="&lt;div&gt;NO&lt;/div&gt;" style="edgeLabel;html=1;align=center;verticalAlign=middle;resizable=0;points=[];fontSize=12;" vertex="1" connectable="0" parent="SEI4IOqOExJCMmpLVqtO-25">
          <mxGeometry x="-0.4833" y="1" relative="1" as="geometry">
            <mxPoint as="offset" />
          </mxGeometry>
        </mxCell>
        <mxCell id="SEI4IOqOExJCMmpLVqtO-82" style="edgeStyle=orthogonalEdgeStyle;rounded=1;html=1;labelBackgroundColor=none;startArrow=none;startFill=0;startSize=5;endArrow=classicThin;endFill=1;endSize=5;jettySize=auto;orthogonalLoop=1;strokeWidth=1;fontFamily=Verdana;fontSize=8;entryX=0;entryY=0.5;entryDx=0;entryDy=0;exitX=1;exitY=0.5;exitDx=0;exitDy=0;" edge="1" parent="77e6c97f196da883-1" source="SEI4IOqOExJCMmpLVqtO-19" target="SEI4IOqOExJCMmpLVqtO-27">
          <mxGeometry relative="1" as="geometry">
            <mxPoint x="350" y="240" as="sourcePoint" />
            <mxPoint x="400" y="695" as="targetPoint" />
          </mxGeometry>
        </mxCell>
        <mxCell id="SEI4IOqOExJCMmpLVqtO-197" value="&lt;div&gt;YES&lt;/div&gt;" style="edgeLabel;html=1;align=center;verticalAlign=middle;resizable=0;points=[];fontSize=12;" vertex="1" connectable="0" parent="SEI4IOqOExJCMmpLVqtO-82">
          <mxGeometry x="-0.9167" y="-1" relative="1" as="geometry">
            <mxPoint as="offset" />
          </mxGeometry>
        </mxCell>
        <mxCell id="SEI4IOqOExJCMmpLVqtO-196" style="edgeStyle=orthogonalEdgeStyle;rounded=1;html=1;labelBackgroundColor=none;startArrow=none;startFill=0;startSize=5;endArrow=classicThin;endFill=1;endSize=5;jettySize=auto;orthogonalLoop=1;strokeWidth=1;fontFamily=Verdana;fontSize=8;entryX=0;entryY=0.25;entryDx=0;entryDy=0;exitX=0.5;exitY=1;exitDx=0;exitDy=0;exitPerimeter=0;" edge="1" parent="77e6c97f196da883-1" source="SEI4IOqOExJCMmpLVqtO-70" target="SEI4IOqOExJCMmpLVqtO-17">
          <mxGeometry relative="1" as="geometry">
            <mxPoint x="167.5" y="625" as="sourcePoint" />
            <mxPoint x="250" y="293.125" as="targetPoint" />
          </mxGeometry>
        </mxCell>
      </root>
    </mxGraphModel>
  </diagram>
</mxfile>
